<svg xmlns="http://www.w3.org/2000/svg" viewBox="0 0 36.41 46.51"><defs><style>.aa6e93a7-04df-400d-bfb3-43e2127edf5f{fill:#e98435;}.a00b864a-14f7-410b-ac74-b5ec6749df31,.f2a009e7-ed0b-4cf5-8227-7ea10a2d9bd4{fill:#fab400;}.f2a009e7-ed0b-4cf5-8227-7ea10a2d9bd4{opacity:0.57;}.e5d91c38-66a1-4a83-aad1-a3f482d64ad0{fill:#ffdf00;opacity:0.34;}</style></defs><g id="aa776c98-e123-47b1-b4ed-bfe3ed6de92e"><g id="b86042b3-4ca6-4944-a2bb-4502f04af6ce"><path class="aa6e93a7-04df-400d-bfb3-43e2127edf5f" d="M13.15,0c.16,9.49-2.48,14.17-5.07,16.71-1.58,1.54-3.95,3.08-5.91,6.66A15.48,15.48,0,0,0,0,30.5,15.66,15.66,0,0,0,4.14,41.11c4.74,5.25,12.59,6.35,19.14,4.69,1.29-.33,10.79-3.41,12.77-12.42,1.56-7.06-2.16-14.81-9.3-18.83,3.23,4.08,3.07,9.2.47,11.73a7,7,0,0,1-7,1.5A6.92,6.92,0,0,1,16.43,24c-1.22-3.08.46-5.8,1.13-8.45C18.37,12.35,18.16,7.39,13.15,0Z"/><path class="f2a009e7-ed0b-4cf5-8227-7ea10a2d9bd4" d="M21.22,31.72c-6-.85-8.91-6.61-9.2-7.22a12.25,12.25,0,0,0-.09,13.23,11.39,11.39,0,0,0,6.94,4.5c2.6.59,10.55.34,14.36-6.38a13.28,13.28,0,0,0-2.06-15.77,9.29,9.29,0,0,1-2.07,9.58C26.2,32.43,22.25,31.87,21.22,31.72Z"/><path class="e5d91c38-66a1-4a83-aad1-a3f482d64ad0" d="M15.3,8.35c-1.44,6.08-4.05,9.22-6.28,11-1.93,1.53-2.87,1.46-4.38,3.13a12.11,12.11,0,0,0-2.38,12c1.61,4.23,6,7.44,7.41,6.57,1.8-1.06-3.15-7-.84-14.26,1.5-4.7,4.71-5.73,6.1-11.55A19.54,19.54,0,0,0,15.3,8.35Z"/><path class="a00b864a-14f7-410b-ac74-b5ec6749df31" d="M21,16.59A4.57,4.57,0,0,0,22,19.5c.94,1.15,2,1.42,2.17,2.23.14.61-.23,1.58-2.83,3a6.2,6.2,0,0,1-2-2.62C18.41,19.31,20.6,17,21,16.59Z"/></g></g></svg>