<svg id="a6f0b3b2-0dcd-4b34-8c65-5578853a7dca" xmlns="http://www.w3.org/2000/svg" viewBox="0 0 182.88 65.36"><defs><style>.ab3bd481-ede4-439e-bd4a-00b0855087e2{fill:#e6843b;}.e8197466-f485-4c2b-8afd-6150e3290760{fill:#221f20;}</style></defs><path class="ab3bd481-ede4-439e-bd4a-00b0855087e2" d="M391.19,242.18a10.57,10.57,0,0,1-.91,2.81c-5,12.2-11.26,23.4-20,23.4-5.46,0-11-3.49-11-9.48,0-16.82,32.21-32.66,56-32.66,12.2,0,19.4,6.14,19.4,13,0,14.93-24,25.62-33.72,25.62-2.43,0-3.41-.23-3.41-.68a.34.34,0,0,1,.37-.3c.23,0,1.22.07,1.6.07,9.62,0,30.46-12.05,30.46-27.51,0-5.15-6-9.25-17-9.25-18.57,0-49.64,16.15-49.64,33.73,0,3.56,1.81,6.29,5.53,6.29,9,0,16.18-13.7,21.33-24.77.23-.53.38-.75.61-.75S391.19,241.88,391.19,242.18ZM413.28,230c.91,0,2.88,2.65,2.88,3.56,0,.46-.23.68-1,1.14-8.18,4.92-28.42,36.22-28.42,49.94,0,.38-.07.61-.3.61-.45,0-3-1.59-3-3C383.42,269.15,408.88,230,413.28,230Z" transform="translate(-251.78 -226.25)"/><path class="ab3bd481-ede4-439e-bd4a-00b0855087e2" d="M405.85,283.7c0,1.36-2.12,2.88-2.65,2.88s-1-.23-1.59-.23-.83.53-1.21.53-.61-.38-.61-1.36a5.07,5.07,0,0,1,1.21-3.11c.68-.84.15-1.59.15-1.9s.23-.45.53-.45C402.9,280.06,405.85,282.18,405.85,283.7Z" transform="translate(-251.78 -226.25)"/><path class="e8197466-f485-4c2b-8afd-6150e3290760" d="M277,262.93c3.7-1.76,8.9-6.28,8.9-8.77a1.81,1.81,0,0,0-1.93-1.9c-9.42,0-27.87,12.13-27.87,19.53a2.14,2.14,0,0,0,2.33,2.06c4.94,0,10.92-3.53,15.56-3.53a4.47,4.47,0,0,1,4.34,4.05c.91-.18,8.54-.86,9.27-.86a1,1,0,0,1,1,.68c0,.13-.08.18-.26.18-1.16,0-9.05.68-10.17.81a19.46,19.46,0,0,1-4.05,8.91c-5.44,6.57-15.89,9.57-20.55,6a4,4,0,0,1-1.8-2.67c-.23-3.56,7.45-6.75,12.57-8.88a71.13,71.13,0,0,1,11-3.55,4.37,4.37,0,0,0,.39-1.85,2.07,2.07,0,0,0-2.33-2.19c-3.69,0-11.69,3.95-15.86,3.95-2,0-4.17-1.46-4.17-3.44,0-8.17,19.3-20.9,29.32-20.9a3.53,3.53,0,0,1,3.78,3.44c0,4.61-6.76,11-8.9,9.81A1.47,1.47,0,0,1,277,262.93Zm-1.89,12.73c-8,1.76-21.5,8.81-21.5,12.59a1.12,1.12,0,0,0,.13.53c.27.53,1,.64,1.29.68a19.12,19.12,0,0,0,15.59-6.1A21.23,21.23,0,0,0,275.13,275.66Z" transform="translate(-251.78 -226.25)"/><path class="e8197466-f485-4c2b-8afd-6150e3290760" d="M291.17,262.33a17.59,17.59,0,0,1,4.69.6c0,.13-.09.26-.18.26a27.37,27.37,0,0,0-3.91-.3,8.78,8.78,0,0,0-2.19.21c-3.14,4.52-8.08,11.7-8.08,16.64,0,1.89.73,2.67,2.06,2.67a.52.52,0,0,1,.39.38c0,.18-.26.22-.43.22-1.12,0-3.14-1.38-3.14-4.26,0-4.17,3.35-10.15,6.1-15a9.85,9.85,0,0,0-2.49.73c-.34,0-.9-.73-.9-1,0-.09,0-.17.21-.26a15.31,15.31,0,0,1,3.87-.73c1.59-2.8,2.84-5.08,2.84-6.15,0-.22.08-.3.21-.3.61,0,2,1.72,2,3a13,13,0,0,1-2.06,3.31Z" transform="translate(-251.78 -226.25)"/><path class="e8197466-f485-4c2b-8afd-6150e3290760" d="M297.4,273.33a.19.19,0,0,1,.18.18c0,.08-.3.38-.43.51s-4.26,4.65-7.57,4.65c-2.19,0-3.35-1.38-3.35-3.62,0-3.87,3.86-7.91,5.76-7.91,1.16,0,1.89,1.46,1.89,2,0,1.2-2.62,3.48-5,4.95a6.32,6.32,0,0,0-.13,1.33c0,1.33.65,2.45,1.89,2.45,2.28,0,6.5-4.34,6.5-4.34S297.32,273.33,297.4,273.33ZM293,269.16c0-.34-.13-.47-.35-.47-.73,0-2.41,1.68-3.7,4.82C290.87,272.22,293,270.15,293,269.16Z" transform="translate(-251.78 -226.25)"/><path class="e8197466-f485-4c2b-8afd-6150e3290760" d="M312,273.51s.17-.18.26-.18a.18.18,0,0,1,.17.18c0,.08-.3.38-.43.51a9.7,9.7,0,0,1-6.88,2.54,9.13,9.13,0,0,1-4.86,2.11,2.89,2.89,0,0,1-3-1.68c-2.46,4.3-5.08,9.42-5.08,13,0,.17,0,.3-.17.3a2.13,2.13,0,0,1-1.2-1.72c0-5.85,9.11-19.22,9.11-21.72a.29.29,0,0,1,.3-.25c.56,0,1.59,1.33,1.59,2s-1.2,2.71-2.75,5.29c1-1.16,5.12-5.85,6.88-5.85,1,0,2.37,1.59,2.37,3,0,1.72-1.21,3.52-2.76,4.94A9.32,9.32,0,0,0,312,273.51Zm-9.93,2.66a10.83,10.83,0,0,0-2.58-.51c-1,0-1.59.43-1.59,1s.56.94,1.29.94A4.76,4.76,0,0,0,302.05,276.17Zm.47-.47c1.94-2.06,3.53-5.12,3.53-6.15a.5.5,0,0,0-.56-.56c-1.29,0-5,4.09-6.8,6A19.57,19.57,0,0,1,302.52,275.7Z" transform="translate(-251.78 -226.25)"/><path class="e8197466-f485-4c2b-8afd-6150e3290760" d="M322.08,278.15a2.89,2.89,0,0,1-2.27-2.32c0-3.14,3-6.06,3-6.32a.26.26,0,0,0-.3-.26c-.95,0-6.8,3.7-8.95,7.95-.86,1.77-1.07,2.76-1.33,2.76-.56,0-1.25-.91-1.25-1.64,0-8.17,9.85-21.76,13.93-21.76a2.23,2.23,0,0,1,2.15,1.77c0,4.17-11.09,13.28-12.94,15.09a12,12,0,0,0-.86,3.1c2-4,8.47-8,9.42-8,.56,0,2.36,1.16,2.36,2.4s-3.39,4-3.39,5.81c0,.51.25.77.64.77,2.19,0,6.19-3.95,6.19-3.95s.17-.18.3-.18.17.13.17.18-.34.38-.47.51S324.41,278.15,322.08,278.15Zm3.83-19.91c-3.14,0-8.86,8.17-11.39,14.19,1.16-1.2,11.74-10.28,11.74-13.8C326.26,258.37,326.13,258.24,325.91,258.24Z" transform="translate(-251.78 -226.25)"/><path class="e8197466-f485-4c2b-8afd-6150e3290760" d="M337.82,278.49a2.48,2.48,0,0,1-2.58-2.58,9.91,9.91,0,0,1,.13-1.54c-2.15,2.1-5.16,5.2-6.15,5.2a2.82,2.82,0,0,1-2.49-2.49c0-3.44,5.85-9.38,9.55-9.38,1.67,0,3.31,1.51,3.31,2.45,0,.69-.22,1.12-.35,1.12a.56.56,0,0,1-.38-.43c0-.17.21-.3.21-.82,0-.3-.47-.68-.77-.68-4.05,0-9.64,6-9.64,9a.5.5,0,0,0,.56.56c.82,0,3.92-3,6-5,1.29-1.29,2.24-2.15,2.62-2.15a2.66,2.66,0,0,1,1.55,1.81c0,.51-1.89,1.93-1.89,3.26,0,.56.43.82.94.82,2.11,0,6.2-4.08,6.2-4.08s.17-.18.26-.18a.19.19,0,0,1,.17.18c0,.08-.3.38-.43.51S340.23,278.49,337.82,278.49Z" transform="translate(-251.78 -226.25)"/><path class="e8197466-f485-4c2b-8afd-6150e3290760" d="M349.13,270c0,.77-1.16,2.41-2.1,4,1.59-1.24,6.19-4.3,7.82-4.3.69,0,1.2,1.25,1.2,1.81s-3.26,3.7-3.26,6c0,.38.25.55.6.55,2.62,0,7.22-4.55,7.22-4.55s.18-.18.26-.18a.24.24,0,0,1,.22.18c0,.08-.48.51-.48.51s-4.94,4.9-7.22,4.9a2.9,2.9,0,0,1-2.45-2.75c0-1.89,2-4.6,2-4.9,0,0,0-.09-.13-.09a19,19,0,0,0-6.15,3.83c-2.75,2.54-3.1,4.65-3.48,4.65s-1.16-1.08-1.16-2,4.38-6.11,5-9.42c0-.34.21-.39.43-.39A2.49,2.49,0,0,1,349.13,270Z" transform="translate(-251.78 -226.25)"/><path class="e8197466-f485-4c2b-8afd-6150e3290760" d="M366.16,269.34c0,.77-4.9,6.32-4.9,8.17a.65.65,0,0,0,.69.73c2.45,0,7.43-4.73,7.43-4.73s.18-.18.31-.18.17.13.17.18-.35.38-.48.51-5.24,5-8,5a2.54,2.54,0,0,1-2.06-2.36c0-1.89,3.74-6.67,4.56-8.69.13-.26.3-.43.51-.43A2.06,2.06,0,0,1,366.16,269.34Zm4.9-9.76a2.57,2.57,0,0,1-.61,1.52,11,11,0,0,1-1.1.66c-.75.42-.91.93-1.08,1a.25.25,0,0,1-.22-.05.27.27,0,0,1-.08-.15,7.57,7.57,0,0,1,.26-1.78.78.78,0,1,0,.36-1.52,5.63,5.63,0,0,0,.16-1.15.15.15,0,0,1,0-.13.19.19,0,0,1,.12-.07C369.55,257.73,371,259,371.06,259.58Z" transform="translate(-251.78 -226.25)"/><path class="e8197466-f485-4c2b-8afd-6150e3290760" d="M375.23,276.26c.22-.22.35-.35.43-.35a.18.18,0,0,1,.17.18c0,.13-.12.34-.43.64a4.91,4.91,0,0,1-3.61,1.94,3.4,3.4,0,0,1-3.35-3.62c0-3.87,3.87-7.91,5.76-7.91,1.16,0,1.89,1.46,1.89,2,0,1.2-2.84,3.48-5.2,4.95a6.32,6.32,0,0,0-.13,1.33c0,1.46.78,2.45,1.94,2.45C373.6,277.85,374.54,276.9,375.23,276.26Zm0-7.1c0-.34-.13-.47-.34-.47-.74,0-2.63,1.68-3.92,4.82C372.87,272.22,375.19,270.15,375.19,269.16Z" transform="translate(-251.78 -226.25)"/><path class="ab3bd481-ede4-439e-bd4a-00b0855087e2" d="M405,248.19a8.21,8.21,0,0,0-1.13,3.21,8,8,0,0,0,0,1.69,5,5,0,0,0,3.28-1,6.84,6.84,0,0,0-.87,3.56,9.61,9.61,0,0,0,1.62-.21,10.57,10.57,0,0,0,1.81-.56,4.08,4.08,0,0,0-.42,2.79,7.34,7.34,0,0,0,2-.07,5.75,5.75,0,0,0,2.5-.9,8.45,8.45,0,0,1-2.17.29,5.16,5.16,0,0,1-1.43-.26,4.22,4.22,0,0,1,0-1.52,4.33,4.33,0,0,1,.57-1.5,4.32,4.32,0,0,1-3.13.74,5.4,5.4,0,0,1,.6-3.56,5.62,5.62,0,0,1-2.08,1,5,5,0,0,1-1.31.14,8.49,8.49,0,0,1-.12-1.43A8.78,8.78,0,0,1,405,248.19Z" transform="translate(-251.78 -226.25)"/><path class="ab3bd481-ede4-439e-bd4a-00b0855087e2" d="M377.06,253.72a5.08,5.08,0,0,0-.25-2.15,4.89,4.89,0,0,0-.46-1,3.5,3.5,0,0,0-1,.64,3.46,3.46,0,0,0-.66.9,4.27,4.27,0,0,0-.16-1.45,3.85,3.85,0,0,0-.34-.83,6.89,6.89,0,0,0-1.77,1.43,2.64,2.64,0,0,0-.17-1.07,2.46,2.46,0,0,0-.37-.64,5.21,5.21,0,0,0-1.14.61,3.84,3.84,0,0,0-1.2,1.23,6.08,6.08,0,0,1,1.18-.79,3.53,3.53,0,0,1,.9-.26,2.44,2.44,0,0,1,.43.86,2.84,2.84,0,0,1,.09,1,3,3,0,0,1,.74-.86,2.87,2.87,0,0,1,.88-.46,3.46,3.46,0,0,1,.52,1.06,3.66,3.66,0,0,1,.13,1.13,3.82,3.82,0,0,1,.93-1.14,3.72,3.72,0,0,1,.73-.46,5.58,5.58,0,0,1,.95,2.2Z" transform="translate(-251.78 -226.25)"/><path class="e8197466-f485-4c2b-8afd-6150e3290760" d="M361.07,257.73l-8.88-3.53a20.57,20.57,0,0,1,4.72-2.85,20.84,20.84,0,0,1,6.36-1.64,4.25,4.25,0,0,1-.45.56,4.32,4.32,0,0,1-.61.56,2.49,2.49,0,0,1,.25.29,2.05,2.05,0,0,1,.26.43c-.23.2-.42.35-.55.45s-.21.16-.24.23,0,.34.12.71a5.19,5.19,0,0,1,.1.55,19.79,19.79,0,0,0-2.7,0,20.29,20.29,0,0,0-4.84.88,20.69,20.69,0,0,1,3.08,1.26A22.15,22.15,0,0,1,361.07,257.73Z" transform="translate(-251.78 -226.25)"/><path class="e8197466-f485-4c2b-8afd-6150e3290760" d="M364.9,259.24c-.15.1-.27.32-.19.46s.38.17.56.1.43-.32.38-.47S365.15,259.05,364.9,259.24Z" transform="translate(-251.78 -226.25)"/><path class="e8197466-f485-4c2b-8afd-6150e3290760" d="M370.19,265.91a2.16,2.16,0,0,0,0,.66c.05.27.09.46.24.54s.7-.2.78-.26a1.48,1.48,0,0,0,.47-.65c-.37-.18-.58-.15-.71-.08s-.22.23-.3.2-.05-.25-.19-.37A.38.38,0,0,0,370.19,265.91Z" transform="translate(-251.78 -226.25)"/></svg>