<svg width="28" height="22" viewBox="0 0 28 22" fill="none" xmlns="http://www.w3.org/2000/svg">
<path d="M24.3104 5.47425C24.3251 5.7097 24.3251 5.95987 24.3251 6.19532C24.3251 13.5385 18.7331 22 8.5204 22C5.38595 22 2.45753 21.0876 0 19.4983C0.441472 19.5425 0.882943 19.5719 1.32441 19.5719C3.9291 19.5719 6.32776 18.689 8.22609 17.2027C5.79799 17.1585 3.73779 15.5545 3.03144 13.3472C3.3699 13.406 3.72308 13.4502 4.07625 13.4502C4.5913 13.4502 5.07692 13.3766 5.53311 13.2589C3.00201 12.7438 1.08896 10.4923 1.08896 7.79933C1.08896 7.7699 1.08896 7.75518 1.08896 7.72575C1.83946 8.13779 2.69298 8.38796 3.60535 8.41739C2.11906 7.43144 1.13311 5.73913 1.13311 3.81137C1.13311 2.79599 1.41271 1.83946 1.88361 1.01538C4.62074 4.38528 8.71171 6.59264 13.3324 6.81338C13.2441 6.41605 13.2 5.9893 13.2 5.54783C13.2 2.48696 15.6722 0 18.7478 0C20.3518 0 21.794 0.676923 22.8094 1.75117C24.0749 1.501 25.2669 1.04482 26.3411 0.397324C25.9291 1.69231 25.0462 2.78127 23.8983 3.47291C25.0167 3.34047 26.0763 3.04615 27.0769 2.60468C26.3264 3.72308 25.3846 4.69431 24.3104 5.47425Z" fill="#60696F"/>
</svg>
